<svg xmlns="http://www.w3.org/2000/svg" xmlns:xlink="http://www.w3.org/1999/xlink" width="75" zoomAndPan="magnify" viewBox="0 0 56.25 56.249997" height="75" preserveAspectRatio="xMidYMid meet" version="1.0"><defs><clipPath id="158adbd10e"><path d="M 0.402344 9.328125 L 55.175781 9.328125 L 55.175781 46.335938 L 0.402344 46.335938 Z M 0.402344 9.328125 " clip-rule="nonzero"/></clipPath></defs><g clip-path="url(#158adbd10e)"><path fill="#0b0f2b" d="M 22.832031 9.453125 C 19.074219 9.453125 15.464844 10.457031 12.003906 12.46875 C 8.542969 14.476562 5.746094 17.277344 3.609375 20.863281 C 1.472656 24.453125 0.402344 28.46875 0.402344 32.910156 C 0.402344 34.742188 0.667969 36.410156 1.183594 37.921875 C 2.601562 42.605469 7.210938 46.035156 12.679688 46.035156 C 19.285156 46.035156 24.636719 41.039062 24.636719 34.875 C 24.636719 29.515625 20.585938 25.039062 15.183594 23.96875 C 13.425781 23.429688 13.351562 20.269531 14.546875 18.804688 L 14.546875 18.792969 C 14.753906 18.539062 14.96875 18.289062 15.207031 18.042969 C 17.046875 16.164062 19.714844 14.753906 23.21875 13.8125 C 24.414062 13.46875 25.226562 13.171875 25.65625 12.917969 C 26.078125 12.660156 26.292969 12.230469 26.292969 11.632812 C 26.292969 10.949219 25.976562 10.417969 25.335938 10.03125 C 24.695312 9.648438 23.859375 9.453125 22.832031 9.453125 Z M 51.640625 9.453125 C 47.878906 9.453125 44.269531 10.457031 40.808594 12.46875 C 37.347656 14.476562 34.546875 17.277344 32.414062 20.863281 C 30.277344 24.453125 29.207031 28.46875 29.207031 32.910156 C 29.207031 34.742188 29.46875 36.410156 29.988281 37.921875 C 31.40625 42.605469 36.015625 46.035156 41.488281 46.035156 C 48.089844 46.035156 53.441406 41.039062 53.441406 34.875 C 53.441406 29.515625 49.390625 25.039062 43.988281 23.96875 C 42.230469 23.429688 42.15625 20.269531 43.351562 18.804688 L 43.351562 18.792969 C 43.558594 18.539062 43.773438 18.289062 44.011719 18.042969 C 45.851562 16.164062 48.519531 14.753906 52.023438 13.8125 C 53.21875 13.46875 54.03125 13.171875 54.460938 12.917969 C 54.882812 12.660156 55.101562 12.230469 55.101562 11.632812 C 55.101562 10.949219 54.78125 10.417969 54.140625 10.03125 C 53.5 9.648438 52.664062 9.453125 51.636719 9.453125 Z M 51.640625 9.453125 " fill-opacity="1" fill-rule="nonzero"/></g></svg>