<svg xmlns="http://www.w3.org/2000/svg" xmlns:xlink="http://www.w3.org/1999/xlink" width="75" zoomAndPan="magnify" viewBox="0 0 56.25 56.249997" height="75" preserveAspectRatio="xMidYMid meet" version="1.0"><defs><clipPath id="86b012ce8c"><path d="M 0.738281 0.738281 L 54.769531 0.738281 L 54.769531 54.769531 L 0.738281 54.769531 Z M 0.738281 0.738281 " clip-rule="nonzero"/></clipPath><clipPath id="02f0d968d8"><path d="M 4.980469 12.410156 L 50.871094 12.410156 L 50.871094 42.757812 L 4.980469 42.757812 Z M 4.980469 12.410156 " clip-rule="nonzero"/></clipPath></defs><g clip-path="url(#86b012ce8c)"><path fill="#005e74" d="M 14.253906 0.730469 C 6.792969 0.730469 0.746094 6.78125 0.746094 14.238281 L 0.746094 41.253906 C 0.746094 48.714844 6.792969 54.761719 14.253906 54.761719 L 41.269531 54.761719 C 48.726562 54.761719 54.773438 48.714844 54.773438 41.253906 L 54.773438 14.238281 C 54.773438 6.78125 48.726562 0.730469 41.269531 0.730469 Z M 14.253906 0.730469 " fill-opacity="1" fill-rule="nonzero"/></g><g clip-path="url(#02f0d968d8)"><path fill="#ffc107" d="M 23.65625 12.519531 C 20.527344 12.519531 17.519531 13.355469 14.636719 15.027344 C 11.757812 16.703125 9.425781 19.03125 7.648438 22.019531 C 5.871094 25.007812 4.980469 28.347656 4.980469 32.050781 C 4.980469 33.574219 5.199219 34.964844 5.628906 36.21875 C 6.8125 40.117188 10.648438 42.976562 15.203125 42.976562 C 20.699219 42.976562 25.15625 38.816406 25.15625 33.683594 C 25.15625 29.222656 21.785156 25.496094 17.289062 24.601562 C 15.820312 24.152344 15.761719 21.523438 16.757812 20.304688 L 16.753906 20.292969 C 16.925781 20.082031 17.109375 19.875 17.304688 19.671875 C 18.835938 18.105469 21.058594 16.933594 23.976562 16.148438 C 24.972656 15.863281 25.648438 15.613281 26.003906 15.402344 C 26.355469 15.1875 26.535156 14.832031 26.535156 14.332031 C 26.535156 13.765625 26.269531 13.320312 25.738281 13 C 25.203125 12.679688 24.511719 12.519531 23.65625 12.519531 Z M 47.636719 12.519531 C 44.507812 12.519531 41.503906 13.355469 38.621094 15.027344 C 35.738281 16.703125 33.410156 19.03125 31.628906 22.019531 C 29.851562 25.007812 28.960938 28.347656 28.960938 32.050781 C 28.960938 33.574219 29.179688 34.964844 29.609375 36.21875 C 30.792969 40.117188 34.628906 42.976562 39.183594 42.976562 C 44.679688 42.976562 49.136719 38.816406 49.136719 33.683594 C 49.136719 29.222656 45.765625 25.496094 41.269531 24.601562 C 39.800781 24.152344 39.742188 21.523438 40.738281 20.304688 L 40.738281 20.292969 C 40.910156 20.082031 41.089844 19.875 41.289062 19.671875 C 42.820312 18.105469 45.039062 16.933594 47.957031 16.148438 C 48.953125 15.863281 49.628906 15.613281 49.984375 15.402344 C 50.339844 15.1875 50.519531 14.832031 50.519531 14.332031 C 50.519531 13.765625 50.25 13.320312 49.71875 13 C 49.183594 12.679688 48.492188 12.519531 47.636719 12.519531 Z M 47.636719 12.519531 " fill-opacity="1" fill-rule="nonzero"/></g></svg>